<svg width="26" height="26" viewBox="0 0 26 26" fill="none" xmlns="http://www.w3.org/2000/svg">
<path d="M5.91016 20.0898C7.90234 22.043 10.2656 23.0195 13 23.0195C15.7344 23.0195 18.0781 22.043 20.0312 20.0898C22.0234 18.0977 23.0195 15.7344 23.0195 13C23.0195 12.1406 22.8828 11.2031 22.6094 10.1875C21.75 10.3828 20.793 10.4805 19.7383 10.4805C17.9414 10.4805 16.0469 9.97266 14.0547 8.95703C12.1016 7.90234 10.6172 6.65234 9.60156 5.20703C8.3125 8.33203 6.125 10.5781 3.03906 11.9453C3 12.1797 2.98047 12.5312 2.98047 13C2.98047 15.7344 3.95703 18.0977 5.91016 20.0898ZM4.15234 4.21094C6.61328 1.75 9.5625 0.519531 13 0.519531C16.4375 0.519531 19.3672 1.75 21.7891 4.21094C24.25 6.63281 25.4805 9.5625 25.4805 13C25.4805 16.4375 24.25 19.3867 21.7891 21.8477C19.3672 24.2695 16.4375 25.4805 13 25.4805C9.5625 25.4805 6.61328 24.2695 4.15234 21.8477C1.73047 19.3867 0.519531 16.4375 0.519531 13C0.519531 9.5625 1.73047 6.63281 4.15234 4.21094ZM15.6367 13.1758C15.9492 12.8633 16.3203 12.707 16.75 12.707C17.1797 12.707 17.5508 12.8633 17.8633 13.1758C18.1758 13.4492 18.332 13.8008 18.332 14.2305C18.332 14.6602 18.1758 15.0312 17.8633 15.3438C17.5508 15.6562 17.1797 15.8125 16.75 15.8125C16.3203 15.8125 15.9492 15.6562 15.6367 15.3438C15.3242 15.0312 15.168 14.6602 15.168 14.2305C15.168 13.8008 15.3242 13.4492 15.6367 13.1758ZM8.13672 13.1758C8.44922 12.8633 8.82031 12.707 9.25 12.707C9.67969 12.707 10.0508 12.8633 10.3633 13.1758C10.6758 13.4492 10.832 13.8008 10.832 14.2305C10.832 14.6602 10.6758 15.0312 10.3633 15.3438C10.0508 15.6562 9.67969 15.8125 9.25 15.8125C8.82031 15.8125 8.44922 15.6562 8.13672 15.3438C7.82422 15.0312 7.66797 14.6602 7.66797 14.2305C7.66797 13.8008 7.82422 13.4492 8.13672 13.1758Z" fill="#945AC3"/>
</svg>
