<svg width="58" height="24" viewBox="0 0 58 24" fill="none" xmlns="http://www.w3.org/2000/svg">
<path d="M0.68 9.936C0.68 8.672 1.064 7.696 1.832 7.008C2.6 6.32 3.6 5.976 4.832 5.976C6.08 5.976 7.072 6.32 7.808 7.008C8.56 7.696 8.936 8.672 8.936 9.936V19.824C8.936 21.184 8.576 22.216 7.856 22.92C7.136 23.64 6.168 24 4.952 24C3.752 24 2.784 23.664 2.048 22.992C1.312 22.32 0.936 21.376 0.92 20.16C0.92 19.872 1.072 19.728 1.376 19.728H1.568C1.888 19.728 2.048 19.872 2.048 20.16C2.08 21.04 2.36 21.712 2.888 22.176C3.432 22.64 4.128 22.872 4.976 22.872C5.824 22.872 6.504 22.616 7.016 22.104C7.544 21.592 7.808 20.824 7.808 19.8V17.136C6.944 17.76 5.92 18.072 4.736 18.072C3.568 18.072 2.6 17.728 1.832 17.04C1.064 16.352 0.68 15.376 0.68 14.112V9.936ZM7.808 9.936C7.808 9.024 7.528 8.328 6.968 7.848C6.408 7.352 5.688 7.104 4.808 7.104C3.944 7.104 3.232 7.352 2.672 7.848C2.112 8.328 1.832 9.032 1.832 9.96V14.088C1.832 15 2.12 15.704 2.696 16.2C3.288 16.68 3.984 16.92 4.784 16.92C5.6 16.92 6.264 16.792 6.776 16.536C7.304 16.264 7.648 15.968 7.808 15.648V9.936ZM13.6059 5.976H14.0139C14.2059 5.976 14.3339 6.016 14.3979 6.096C14.4619 6.176 14.4939 6.296 14.4939 6.456V17.52C14.4939 17.664 14.4459 17.784 14.3499 17.88C14.2539 17.96 14.1419 18 14.0139 18H13.6059C13.4779 18 13.3659 17.96 13.2699 17.88C13.1739 17.784 13.1259 17.664 13.1259 17.52V6.456C13.1259 6.248 13.1659 6.12 13.2459 6.072C13.3419 6.008 13.4619 5.976 13.6059 5.976ZM12.6699 0.647999C12.8299 0.503999 13.1979 0.431999 13.7739 0.431999C14.3499 0.431999 14.7259 0.511999 14.9019 0.671999C15.0779 0.815999 15.1659 1.128 15.1659 1.608V1.92C15.1659 2.464 15.0779 2.808 14.9019 2.952C14.7259 3.096 14.3499 3.168 13.7739 3.168C13.1979 3.168 12.8299 3.096 12.6699 2.952C12.5099 2.808 12.4299 2.464 12.4299 1.92V1.608C12.4299 1.096 12.5099 0.775999 12.6699 0.647999ZM14.3259 1.68C14.3259 1.52 14.2859 1.416 14.2059 1.368C14.1419 1.304 13.9979 1.272 13.7739 1.272C13.5659 1.272 13.4299 1.296 13.3659 1.344C13.3019 1.392 13.2699 1.504 13.2699 1.68V1.92C13.2699 2.096 13.3019 2.208 13.3659 2.256C13.4299 2.304 13.5739 2.328 13.7979 2.328C14.0219 2.328 14.1659 2.304 14.2299 2.256C14.2939 2.208 14.3259 2.096 14.3259 1.92V1.68ZM19.0323 0.48H19.2243C19.5283 0.48 19.6803 0.631999 19.6803 0.935999L19.6083 14.304C19.6243 15.12 19.8483 15.752 20.2803 16.2C20.7283 16.648 21.3123 16.872 22.0323 16.872H22.6323C22.7603 16.872 22.8643 16.92 22.9443 17.016C23.0403 17.112 23.0883 17.216 23.0883 17.328V17.52C23.0883 17.84 22.7283 18 22.0083 18C20.9523 18 20.1043 17.68 19.4643 17.04C18.8243 16.384 18.4963 15.48 18.4803 14.328L18.5523 0.935999C18.5843 0.631999 18.7443 0.48 19.0323 0.48ZM17.1843 6H17.7603C17.9043 6 18.0163 6.048 18.0963 6.144C18.1923 6.24 18.2403 6.352 18.2403 6.48V6.624C18.2403 6.752 18.1923 6.864 18.0963 6.96C18.0163 7.056 17.9043 7.104 17.7603 7.104H17.1843C17.0403 7.104 16.9203 7.056 16.8243 6.96C16.7443 6.864 16.7043 6.752 16.7043 6.624V6.48C16.7043 6.352 16.7443 6.24 16.8243 6.144C16.9203 6.048 17.0403 6 17.1843 6ZM20.4003 6H22.1763C22.3043 6 22.4083 6.048 22.4883 6.144C22.5843 6.24 22.6323 6.352 22.6323 6.48V6.624C22.6323 6.752 22.5843 6.864 22.4883 6.96C22.4083 7.056 22.3043 7.104 22.1763 7.104H20.4003C20.2723 7.104 20.1603 7.056 20.0643 6.96C19.9683 6.864 19.9203 6.752 19.9203 6.624V6.48C19.9203 6.352 19.9683 6.24 20.0643 6.144C20.1603 6.048 20.2723 6 20.4003 6ZM30.2388 5.952C31.3428 5.952 32.2388 6.304 32.9268 7.008C33.6308 7.712 33.9828 8.68 33.9828 9.912V17.52C33.9828 17.84 33.8308 18 33.5268 18H33.3108C32.9908 18 32.8308 17.84 32.8308 17.52V9.936C32.8308 9.024 32.5828 8.32 32.0868 7.824C31.5908 7.328 30.9188 7.08 30.0708 7.08C29.2388 7.08 28.5188 7.384 27.9108 7.992C27.7668 8.136 27.6308 8.208 27.5028 8.208C27.2148 8.208 27.0628 8.048 27.0468 7.728C27.0468 7.616 27.0788 7.496 27.1428 7.368C27.3508 6.984 27.7508 6.656 28.3428 6.384C28.9348 6.096 29.5668 5.952 30.2388 5.952ZM26.2548 0.456H26.4468C26.5748 0.456 26.6868 0.504 26.7828 0.599999C26.8788 0.679999 26.9268 0.791999 26.9268 0.935999V17.52C26.9268 17.664 26.8788 17.784 26.7828 17.88C26.6868 17.96 26.5748 18 26.4468 18H26.2548C26.1268 18 26.0148 17.96 25.9188 17.88C25.8228 17.784 25.7748 17.664 25.7748 17.52V0.935999C25.7748 0.791999 25.8228 0.679999 25.9188 0.599999C26.0148 0.504 26.1268 0.456 26.2548 0.456ZM37.9569 5.952H38.1489C38.4689 5.952 38.6289 6.112 38.6289 6.432V14.016C38.6289 14.96 38.8609 15.672 39.3249 16.152C39.8049 16.632 40.4769 16.872 41.3409 16.872C42.2049 16.872 42.9489 16.528 43.5729 15.84C43.7169 15.664 43.8689 15.576 44.0289 15.576C44.3329 15.576 44.4849 15.752 44.4849 16.104C44.4849 16.248 44.4449 16.376 44.3649 16.488C44.0449 16.936 43.5969 17.304 43.0209 17.592C42.4449 17.864 41.8369 18 41.1969 18C40.0929 18 39.1969 17.656 38.5089 16.968C37.8369 16.264 37.5009 15.288 37.5009 14.04V6.432C37.5009 6.112 37.6529 5.952 37.9569 5.952ZM45.0609 6H45.3009C45.6049 6 45.7569 6.16 45.7569 6.48V15.192C45.7569 15.816 45.8049 16.248 45.9009 16.488C46.0129 16.712 46.2209 16.864 46.5249 16.944L46.7889 17.016C47.0289 17.064 47.1489 17.168 47.1489 17.328V17.592C47.1489 17.864 46.9889 18 46.6689 18C45.8849 18 45.3409 17.768 45.0369 17.304C44.7489 16.84 44.6049 16.128 44.6049 15.168V6.48C44.6049 6.16 44.7569 6 45.0609 6ZM49.406 0.48H49.598C49.726 0.48 49.838 0.527999 49.934 0.623999C50.03 0.703999 50.078 0.807999 50.078 0.935999V7.152C50.91 6.352 51.95 5.952 53.198 5.952C54.446 5.952 55.422 6.304 56.126 7.008C56.846 7.696 57.206 8.664 57.206 9.912V14.088C57.206 15.352 56.822 16.328 56.054 17.016C55.286 17.704 54.286 18.048 53.054 18.048C51.822 18.048 50.822 17.704 50.054 17.016C49.302 16.312 48.926 15.336 48.926 14.088V0.935999C48.926 0.807999 48.974 0.703999 49.07 0.623999C49.166 0.527999 49.278 0.48 49.406 0.48ZM53.246 7.104C51.87 7.104 50.814 7.592 50.078 8.568V14.064C50.078 14.976 50.358 15.68 50.918 16.176C51.478 16.656 52.19 16.896 53.054 16.896C53.918 16.896 54.63 16.656 55.19 16.176C55.766 15.696 56.054 14.992 56.054 14.064V9.96C56.054 9.032 55.798 8.328 55.286 7.848C54.774 7.352 54.094 7.104 53.246 7.104Z" fill="white"/>
</svg>
