<svg width="173" height="24" viewBox="0 0 173 24" fill="none" xmlns="http://www.w3.org/2000/svg">
<path d="M0.48 9.768C0.48 8.392 0.976 7.304 1.968 6.504C2.96 5.688 4.184 5.28 5.64 5.28C7.112 5.28 8.352 5.664 9.36 6.432C10.368 7.2 10.872 8.328 10.872 9.816V13.848C10.872 14.44 10.688 14.936 10.32 15.336C9.952 15.72 9.512 15.912 9 15.912C8.504 15.912 8.056 15.736 7.656 15.384C7.096 15.848 6.408 16.08 5.592 16.08C4.792 16.08 4.144 15.848 3.648 15.384C3.152 14.92 2.904 14.248 2.904 13.368V10.248C2.904 9.368 3.16 8.696 3.672 8.232C4.2 7.768 4.88 7.536 5.712 7.536C6.56 7.536 7.24 7.776 7.752 8.256C8.28 8.72 8.544 9.384 8.544 10.248V14.088C8.544 14.248 8.6 14.392 8.712 14.52C8.824 14.632 8.96 14.688 9.12 14.688C9.296 14.688 9.44 14.616 9.552 14.472C9.68 14.312 9.744 14.152 9.744 13.992V10.32C9.744 8.976 9.36 7.992 8.592 7.368C7.824 6.744 6.864 6.432 5.712 6.432C4.576 6.432 3.608 6.736 2.808 7.344C2.008 7.936 1.608 8.752 1.608 9.792V13.92C1.608 14.928 2.016 15.744 2.832 16.368C3.664 17.024 4.592 17.352 5.616 17.352C6.64 17.352 7.64 17.112 8.616 16.632C8.84 17.176 8.968 17.544 9 17.736C7.976 18.248 6.84 18.504 5.592 18.504C4.12 18.504 2.896 18.088 1.92 17.256C0.96 16.408 0.48 15.304 0.48 13.944V9.768ZM7.368 10.248C7.368 9.224 6.816 8.712 5.712 8.712C4.624 8.712 4.08 9.224 4.08 10.248V13.368C4.08 14.408 4.632 14.928 5.736 14.928C6.456 14.928 7 14.648 7.368 14.088V10.248ZM24.6347 5.952C25.8187 5.952 26.7307 6.296 27.3707 6.984C28.0107 7.672 28.3307 8.648 28.3307 9.912V17.52C28.3307 17.84 28.1787 18 27.8747 18H27.6827C27.3627 18 27.2027 17.84 27.2027 17.52V9.936C27.2027 8.992 26.9787 8.28 26.5307 7.8C26.0827 7.32 25.4187 7.08 24.5387 7.08C23.6747 7.08 22.9147 7.44 22.2587 8.16C22.0827 8.304 21.9307 8.376 21.8027 8.376C21.5147 8.376 21.3627 8.216 21.3467 7.896C21.3467 7.768 21.3787 7.64 21.4427 7.512C21.7787 7.048 22.2267 6.672 22.7867 6.384C23.3467 6.096 23.9627 5.952 24.6347 5.952ZM13.5947 6.024H13.7867C13.9147 6.024 14.0267 6.072 14.1227 6.168C14.2187 6.248 14.2667 6.36 14.2667 6.504V17.52C14.2667 17.664 14.2187 17.784 14.1227 17.88C14.0267 17.96 13.9147 18 13.7867 18H13.5947C13.2907 18 13.1387 17.84 13.1387 17.52V6.504C13.1387 6.184 13.2907 6.024 13.5947 6.024ZM14.4827 7.512C15.2187 6.472 16.2187 5.952 17.4827 5.952C18.7467 5.952 19.6987 6.296 20.3387 6.984C20.9787 7.672 21.2987 8.648 21.2987 9.912V17.52C21.2987 17.84 21.1467 18 20.8427 18H20.6507C20.3307 18 20.1707 17.84 20.1707 17.52V9.936C20.1707 8.992 19.9467 8.28 19.4987 7.8C19.0507 7.32 18.3947 7.08 17.5307 7.08C16.6827 7.08 15.9387 7.44 15.2987 8.16C15.1227 8.304 14.9707 8.376 14.8427 8.376C14.5547 8.376 14.4027 8.216 14.3867 7.896C14.3867 7.768 14.4187 7.64 14.4827 7.512ZM32.0098 9.912C32.0098 8.648 32.3938 7.672 33.1618 6.984C33.9298 6.296 34.9298 5.952 36.1618 5.952C37.3938 5.952 38.3858 6.304 39.1378 7.008C39.8898 7.696 40.2658 8.664 40.2658 9.912V15.192C40.2658 15.816 40.3138 16.248 40.4098 16.488C40.5218 16.712 40.7298 16.864 41.0338 16.944L41.2978 17.016C41.5378 17.064 41.6578 17.168 41.6578 17.328V17.592C41.6578 17.864 41.4978 18 41.1778 18C40.3938 18 39.8578 17.768 39.5698 17.304C39.2818 16.84 39.1378 16.128 39.1378 15.168V9.912C39.1378 9 38.8578 8.304 38.2978 7.824C37.7378 7.328 37.0258 7.08 36.1618 7.08C35.2978 7.08 34.5778 7.328 34.0018 7.824C33.4258 8.304 33.1378 9 33.1378 9.912V14.016C33.1378 14.96 33.3698 15.672 33.8338 16.152C34.3138 16.632 34.9938 16.872 35.8738 16.872C36.7698 16.872 37.5058 16.512 38.0818 15.792C38.1938 15.648 38.3458 15.576 38.5378 15.576C38.7458 15.576 38.8898 15.696 38.9698 15.936C39.0178 16.128 38.9938 16.296 38.8978 16.44C38.2098 17.48 37.2178 18 35.9218 18C34.6418 18 33.6658 17.656 32.9938 16.968C32.3378 16.28 32.0098 15.304 32.0098 14.04V9.912ZM48.1116 5.952C48.4156 5.952 48.5676 6.112 48.5676 6.432V6.6C48.5676 6.728 48.5196 6.84 48.4236 6.936C48.3436 7.032 48.2396 7.08 48.1116 7.08C47.1996 7.08 46.4716 7.312 45.9276 7.776C45.3836 8.24 45.1116 8.952 45.1116 9.912V17.52C45.1116 17.664 45.0636 17.784 44.9676 17.88C44.8716 17.96 44.7596 18 44.6316 18H44.4636C44.3356 18 44.2236 17.96 44.1276 17.88C44.0316 17.784 43.9836 17.664 43.9836 17.52V9.912C43.9836 8.6 44.3516 7.616 45.0876 6.96C45.8236 6.288 46.8316 5.952 48.1116 5.952ZM51.2079 0.48H51.4239C51.7279 0.48 51.8799 0.631999 51.8799 0.935999V16.32C52.2319 15.776 53.2799 14.024 55.0239 11.064C56.7679 8.104 57.7359 6.464 57.9279 6.144C57.9919 6.048 58.1119 6 58.2879 6H58.8159C59.0239 6 59.1279 6.08 59.1279 6.24C59.1279 6.4 58.5359 7.456 57.3519 9.408L55.9839 11.664L59.1279 17.424C59.2079 17.552 59.2479 17.664 59.2479 17.76C59.2479 17.92 59.1439 18 58.9359 18H58.4079C58.2799 18 58.1519 17.92 58.0239 17.76L55.3119 12.816C53.6479 15.6 52.7199 17.12 52.5279 17.376C52.3519 17.632 52.1919 17.8 52.0479 17.88C51.9199 17.96 51.7679 18 51.5919 18C51.0319 18 50.7519 17.688 50.7519 17.064V0.935999C50.7519 0.631999 50.9039 0.48 51.2079 0.48ZM62.7928 5.952H62.9848C63.3048 5.952 63.4648 6.112 63.4648 6.432V14.016C63.4648 14.96 63.6968 15.672 64.1608 16.152C64.6408 16.632 65.3128 16.872 66.1768 16.872C67.0408 16.872 67.7848 16.528 68.4088 15.84C68.5528 15.664 68.7048 15.576 68.8648 15.576C69.1688 15.576 69.3208 15.752 69.3208 16.104C69.3208 16.248 69.2808 16.376 69.2008 16.488C68.8808 16.936 68.4328 17.304 67.8568 17.592C67.2808 17.864 66.6728 18 66.0328 18C64.9288 18 64.0328 17.656 63.3448 16.968C62.6728 16.264 62.3368 15.288 62.3368 14.04V6.432C62.3368 6.112 62.4888 5.952 62.7928 5.952ZM69.8968 6H70.1368C70.4408 6 70.5928 6.16 70.5928 6.48V15.192C70.5928 15.816 70.6408 16.248 70.7368 16.488C70.8488 16.712 71.0568 16.864 71.3608 16.944L71.6248 17.016C71.8648 17.064 71.9848 17.168 71.9848 17.328V17.592C71.9848 17.864 71.8248 18 71.5048 18C70.7208 18 70.1768 17.768 69.8728 17.304C69.5848 16.84 69.4408 16.128 69.4408 15.168V6.48C69.4408 6.16 69.5928 6 69.8968 6ZM74.3859 9.144C74.3859 8.232 74.6899 7.472 75.2979 6.864C75.9219 6.256 76.8419 5.952 78.0579 5.952C79.2899 5.952 80.2339 6.256 80.8899 6.864C81.5459 7.456 81.8739 8.336 81.8739 9.504C81.8739 9.632 81.8259 9.744 81.7299 9.84C81.6499 9.92 81.5459 9.96 81.4179 9.96H81.2019C81.0739 9.96 80.9619 9.92 80.8659 9.84C80.7859 9.744 80.7459 9.64 80.7459 9.528C80.7459 7.912 79.8419 7.104 78.0339 7.104C77.2019 7.104 76.5699 7.304 76.1379 7.704C75.7219 8.104 75.5139 8.608 75.5139 9.216C75.5139 9.824 75.7139 10.312 76.1139 10.68C76.5299 11.032 77.3059 11.32 78.4419 11.544C79.5779 11.768 80.4659 12.12 81.1059 12.6C81.7459 13.08 82.0659 13.8 82.0659 14.76C82.0659 15.704 81.7139 16.496 81.0099 17.136C80.3219 17.76 79.3539 18.072 78.1059 18.072C76.8739 18.072 75.8739 17.76 75.1059 17.136C74.3379 16.496 73.9539 15.56 73.9539 14.328C73.9539 13.992 74.1139 13.824 74.4339 13.824H74.6259C74.9299 13.824 75.0819 13.984 75.0819 14.304C75.0819 16.048 76.1139 16.92 78.1779 16.92C79.1059 16.92 79.7939 16.712 80.2419 16.296C80.7059 15.864 80.9379 15.336 80.9379 14.712C80.9379 14.088 80.6979 13.64 80.2179 13.368C79.7379 13.08 78.8979 12.808 77.6979 12.552C76.5139 12.296 75.6659 11.888 75.1539 11.328C74.6419 10.768 74.3859 10.04 74.3859 9.144ZM92.8198 0.431999H93.1078C93.3958 0.431999 93.5398 0.583999 93.5398 0.887999V14.088C93.5398 15.336 93.1558 16.312 92.3878 17.016C91.6358 17.704 90.6438 18.048 89.4118 18.048C88.1798 18.048 87.1798 17.704 86.4118 17.016C85.6438 16.328 85.2598 15.352 85.2598 14.088V9.912C85.2598 8.68 85.6438 7.72 86.4118 7.032C87.1798 6.344 88.1798 6 89.4118 6C89.9238 6 90.4678 6.096 91.0438 6.288C91.6358 6.48 92.0838 6.696 92.3878 6.936V0.887999C92.3878 0.583999 92.5318 0.431999 92.8198 0.431999ZM92.3878 8.256C91.4598 7.52 90.5158 7.152 89.5558 7.152C88.5958 7.152 87.8278 7.392 87.2518 7.872C86.6918 8.352 86.4118 9.048 86.4118 9.96V14.064C86.4118 14.992 86.6918 15.696 87.2518 16.176C87.8278 16.656 88.5478 16.896 89.4118 16.896C90.2758 16.896 90.9878 16.656 91.5478 16.176C92.1078 15.68 92.3878 14.976 92.3878 14.064V8.256ZM97.4222 9.912C97.4222 8.648 97.8062 7.672 98.5742 6.984C99.3422 6.296 100.342 5.952 101.574 5.952C102.806 5.952 103.798 6.304 104.55 7.008C105.302 7.696 105.678 8.664 105.678 9.912V14.088C105.678 15.336 105.302 16.312 104.55 17.016C103.798 17.704 102.806 18.048 101.574 18.048C100.358 18.048 99.3582 17.704 98.5742 17.016C97.8062 16.312 97.4222 15.336 97.4222 14.088V9.912ZM104.55 9.912C104.55 9 104.27 8.304 103.71 7.824C103.15 7.328 102.438 7.08 101.574 7.08C100.71 7.08 99.9902 7.328 99.4142 7.824C98.8382 8.304 98.5502 9 98.5502 9.912V14.088C98.5502 15 98.8382 15.704 99.4142 16.2C99.9902 16.68 100.71 16.92 101.574 16.92C102.438 16.92 103.15 16.68 103.71 16.2C104.27 15.704 104.55 15 104.55 14.088V9.912ZM109.996 5.952H110.188C110.508 5.952 110.668 6.112 110.668 6.432V14.016C110.668 14.96 110.9 15.672 111.364 16.152C111.844 16.632 112.516 16.872 113.38 16.872C114.244 16.872 114.988 16.528 115.612 15.84C115.756 15.664 115.908 15.576 116.068 15.576C116.372 15.576 116.524 15.752 116.524 16.104C116.524 16.248 116.484 16.376 116.404 16.488C116.084 16.936 115.636 17.304 115.06 17.592C114.484 17.864 113.876 18 113.236 18C112.132 18 111.236 17.656 110.548 16.968C109.876 16.264 109.54 15.288 109.54 14.04V6.432C109.54 6.112 109.692 5.952 109.996 5.952ZM117.1 6H117.34C117.644 6 117.796 6.16 117.796 6.48V15.192C117.796 15.816 117.844 16.248 117.94 16.488C118.052 16.712 118.26 16.864 118.564 16.944L118.828 17.016C119.068 17.064 119.188 17.168 119.188 17.328V17.592C119.188 17.864 119.028 18 118.708 18C117.924 18 117.38 17.768 117.076 17.304C116.788 16.84 116.644 16.128 116.644 15.168V6.48C116.644 6.16 116.796 6 117.1 6ZM121.469 9.936C121.469 8.672 121.853 7.696 122.621 7.008C123.389 6.32 124.389 5.976 125.621 5.976C126.869 5.976 127.861 6.32 128.597 7.008C129.349 7.696 129.725 8.672 129.725 9.936V19.824C129.725 21.184 129.365 22.216 128.645 22.92C127.925 23.64 126.957 24 125.741 24C124.541 24 123.573 23.664 122.837 22.992C122.101 22.32 121.725 21.376 121.709 20.16C121.709 19.872 121.861 19.728 122.165 19.728H122.357C122.677 19.728 122.837 19.872 122.837 20.16C122.869 21.04 123.149 21.712 123.677 22.176C124.221 22.64 124.917 22.872 125.765 22.872C126.613 22.872 127.293 22.616 127.805 22.104C128.333 21.592 128.597 20.824 128.597 19.8V17.136C127.733 17.76 126.709 18.072 125.525 18.072C124.357 18.072 123.389 17.728 122.621 17.04C121.853 16.352 121.469 15.376 121.469 14.112V9.936ZM128.597 9.936C128.597 9.024 128.317 8.328 127.757 7.848C127.197 7.352 126.477 7.104 125.597 7.104C124.733 7.104 124.021 7.352 123.461 7.848C122.901 8.328 122.621 9.032 122.621 9.96V14.088C122.621 15 122.909 15.704 123.485 16.2C124.077 16.68 124.773 16.92 125.573 16.92C126.389 16.92 127.053 16.792 127.565 16.536C128.093 16.264 128.437 15.968 128.597 15.648V9.936ZM134.371 0.48H134.563C134.867 0.48 135.019 0.631999 135.019 0.935999V14.304C135.019 16.016 135.747 16.872 137.203 16.872H137.587C137.715 16.872 137.819 16.92 137.899 17.016C137.995 17.112 138.043 17.216 138.043 17.328V17.52C138.043 17.84 137.755 18 137.179 18C136.091 18 135.267 17.688 134.707 17.064C134.147 16.44 133.875 15.528 133.891 14.328V0.935999C133.891 0.631999 134.051 0.48 134.371 0.48ZM141.018 9.912C141.018 8.648 141.402 7.672 142.17 6.984C142.938 6.296 143.938 5.952 145.17 5.952C146.402 5.952 147.394 6.304 148.146 7.008C148.898 7.696 149.274 8.664 149.274 9.912V15.192C149.274 15.816 149.322 16.248 149.418 16.488C149.53 16.712 149.738 16.864 150.042 16.944L150.306 17.016C150.546 17.064 150.666 17.168 150.666 17.328V17.592C150.666 17.864 150.506 18 150.186 18C149.402 18 148.866 17.768 148.578 17.304C148.29 16.84 148.146 16.128 148.146 15.168V9.912C148.146 9 147.866 8.304 147.306 7.824C146.746 7.328 146.034 7.08 145.17 7.08C144.306 7.08 143.586 7.328 143.01 7.824C142.434 8.304 142.146 9 142.146 9.912V14.016C142.146 14.96 142.378 15.672 142.842 16.152C143.322 16.632 144.002 16.872 144.882 16.872C145.778 16.872 146.514 16.512 147.09 15.792C147.202 15.648 147.354 15.576 147.546 15.576C147.754 15.576 147.898 15.696 147.978 15.936C148.026 16.128 148.002 16.296 147.906 16.44C147.218 17.48 146.226 18 144.93 18C143.65 18 142.674 17.656 142.002 16.968C141.346 16.28 141.018 15.304 141.018 14.04V9.912ZM153.159 9.144C153.159 8.232 153.463 7.472 154.071 6.864C154.695 6.256 155.615 5.952 156.831 5.952C158.063 5.952 159.007 6.256 159.663 6.864C160.319 7.456 160.647 8.336 160.647 9.504C160.647 9.632 160.599 9.744 160.503 9.84C160.423 9.92 160.319 9.96 160.191 9.96H159.975C159.847 9.96 159.735 9.92 159.639 9.84C159.559 9.744 159.519 9.64 159.519 9.528C159.519 7.912 158.615 7.104 156.807 7.104C155.975 7.104 155.343 7.304 154.911 7.704C154.495 8.104 154.287 8.608 154.287 9.216C154.287 9.824 154.487 10.312 154.887 10.68C155.303 11.032 156.079 11.32 157.215 11.544C158.351 11.768 159.239 12.12 159.879 12.6C160.519 13.08 160.839 13.8 160.839 14.76C160.839 15.704 160.487 16.496 159.783 17.136C159.095 17.76 158.127 18.072 156.879 18.072C155.647 18.072 154.647 17.76 153.879 17.136C153.111 16.496 152.727 15.56 152.727 14.328C152.727 13.992 152.887 13.824 153.207 13.824H153.399C153.703 13.824 153.855 13.984 153.855 14.304C153.855 16.048 154.887 16.92 156.951 16.92C157.879 16.92 158.567 16.712 159.015 16.296C159.479 15.864 159.711 15.336 159.711 14.712C159.711 14.088 159.471 13.64 158.991 13.368C158.511 13.08 157.671 12.808 156.471 12.552C155.287 12.296 154.439 11.888 153.927 11.328C153.415 10.768 153.159 10.04 153.159 9.144ZM163.601 17.064H171.833C171.961 17.064 172.073 17.112 172.169 17.208C172.265 17.288 172.313 17.392 172.313 17.52V17.76C172.313 17.888 172.265 17.992 172.169 18.072C172.073 18.168 171.961 18.216 171.833 18.216H163.601C163.473 18.216 163.361 18.168 163.265 18.072C163.169 17.992 163.121 17.888 163.121 17.76V17.52C163.121 17.392 163.169 17.288 163.265 17.208C163.361 17.112 163.473 17.064 163.601 17.064Z" fill="white"/>
</svg>
