<svg width="73" height="19" viewBox="0 0 73 19" fill="none" xmlns="http://www.w3.org/2000/svg">
<path d="M1.16 0.48H1.352C1.656 0.48 1.808 0.631999 1.808 0.935999V14.304C1.808 16.016 2.536 16.872 3.992 16.872H4.376C4.504 16.872 4.608 16.92 4.688 17.016C4.784 17.112 4.832 17.216 4.832 17.328V17.52C4.832 17.84 4.544 18 3.968 18C2.88 18 2.056 17.688 1.496 17.064C0.936 16.44 0.664 15.528 0.68 14.328V0.935999C0.68 0.631999 0.84 0.48 1.16 0.48ZM8.23869 5.976H8.64669C8.83869 5.976 8.96669 6.016 9.03069 6.096C9.09469 6.176 9.12669 6.296 9.12669 6.456V17.52C9.12669 17.664 9.07869 17.784 8.98269 17.88C8.88669 17.96 8.77469 18 8.64669 18H8.23869C8.11069 18 7.99869 17.96 7.90269 17.88C7.80669 17.784 7.75869 17.664 7.75869 17.52V6.456C7.75869 6.248 7.79869 6.12 7.87869 6.072C7.97469 6.008 8.09469 5.976 8.23869 5.976ZM7.30269 0.647999C7.46269 0.503999 7.83069 0.431999 8.40669 0.431999C8.98269 0.431999 9.35869 0.511999 9.53469 0.671999C9.71069 0.815999 9.79869 1.128 9.79869 1.608V1.92C9.79869 2.464 9.71069 2.808 9.53469 2.952C9.35869 3.096 8.98269 3.168 8.40669 3.168C7.83069 3.168 7.46269 3.096 7.30269 2.952C7.14269 2.808 7.06269 2.464 7.06269 1.92V1.608C7.06269 1.096 7.14269 0.775999 7.30269 0.647999ZM8.95869 1.68C8.95869 1.52 8.91869 1.416 8.83869 1.368C8.77469 1.304 8.63069 1.272 8.40669 1.272C8.19869 1.272 8.06269 1.296 7.99869 1.344C7.93469 1.392 7.90269 1.504 7.90269 1.68V1.92C7.90269 2.096 7.93469 2.208 7.99869 2.256C8.06269 2.304 8.20669 2.328 8.43069 2.328C8.65469 2.328 8.79869 2.304 8.86269 2.256C8.92669 2.208 8.95869 2.096 8.95869 1.92V1.68ZM16.9051 5.952C18.1051 5.952 19.0251 6.272 19.6651 6.912C20.3051 7.536 20.6251 8.456 20.6251 9.672V17.52C20.6251 17.84 20.4731 18 20.1691 18H19.9771C19.6571 18 19.4971 17.84 19.4971 17.52V9.936C19.4971 8.032 18.6251 7.08 16.8811 7.08C15.9691 7.08 15.1931 7.44 14.5531 8.16C14.3771 8.304 14.2251 8.376 14.0971 8.376C13.8091 8.376 13.6571 8.216 13.6411 7.896C13.6411 7.768 13.6731 7.64 13.7371 7.512C14.0731 7.048 14.5211 6.672 15.0811 6.384C15.6411 6.096 16.2491 5.952 16.9051 5.952ZM12.8491 6.024H13.0411C13.1691 6.024 13.2811 6.072 13.3771 6.168C13.4731 6.248 13.5211 6.36 13.5211 6.504V17.52C13.5211 17.664 13.4731 17.784 13.3771 17.88C13.2811 17.96 13.1691 18 13.0411 18H12.8491C12.7211 18 12.6091 17.96 12.5131 17.88C12.4171 17.784 12.3691 17.664 12.3691 17.52V6.504C12.3691 6.36 12.4171 6.248 12.5131 6.168C12.6091 6.072 12.7211 6.024 12.8491 6.024ZM24.3095 0.48H24.5255C24.8295 0.48 24.9815 0.631999 24.9815 0.935999V16.32C25.3335 15.776 26.3815 14.024 28.1255 11.064C29.8695 8.104 30.8375 6.464 31.0295 6.144C31.0935 6.048 31.2135 6 31.3895 6H31.9175C32.1255 6 32.2295 6.08 32.2295 6.24C32.2295 6.4 31.6375 7.456 30.4535 9.408L29.0855 11.664L32.2295 17.424C32.3095 17.552 32.3495 17.664 32.3495 17.76C32.3495 17.92 32.2455 18 32.0375 18H31.5095C31.3815 18 31.2535 17.92 31.1255 17.76L28.4135 12.816C26.7495 15.6 25.8215 17.12 25.6295 17.376C25.4535 17.632 25.2935 17.8 25.1495 17.88C25.0215 17.96 24.8695 18 24.6935 18C24.1335 18 23.8535 17.688 23.8535 17.064V0.935999C23.8535 0.631999 24.0055 0.48 24.3095 0.48ZM35.4144 9.912C35.4144 8.648 35.7984 7.672 36.5664 6.984C37.3344 6.296 38.3344 5.952 39.5664 5.952C40.7984 5.952 41.7904 6.304 42.5424 7.008C43.2944 7.696 43.6704 8.664 43.6704 9.912V11.352C43.6704 12.04 43.3424 12.384 42.6864 12.384H37.5024C37.3584 12.384 37.2384 12.336 37.1424 12.24C37.0624 12.144 37.0224 12.032 37.0224 11.904V11.712C37.0224 11.584 37.0624 11.472 37.1424 11.376C37.2384 11.28 37.3584 11.232 37.5024 11.232H42.5424V9.936C42.5424 9.024 42.2624 8.328 41.7024 7.848C41.1424 7.352 40.4304 7.104 39.5664 7.104C38.7024 7.104 37.9824 7.352 37.4064 7.848C36.8464 8.328 36.5664 9.024 36.5664 9.936V14.064C36.5664 14.976 36.8464 15.68 37.4064 16.176C37.9824 16.656 38.6944 16.896 39.5424 16.896C40.4064 16.896 41.1184 16.664 41.6784 16.2C42.2544 15.72 42.5424 15.04 42.5424 14.16C42.5424 14.032 42.5824 13.92 42.6624 13.824C42.7584 13.728 42.8704 13.68 42.9984 13.68H43.1904C43.3344 13.68 43.4464 13.728 43.5264 13.824C43.6224 13.92 43.6704 14.032 43.6704 14.16C43.6544 15.392 43.2704 16.352 42.5184 17.04C41.7664 17.712 40.7824 18.048 39.5664 18.048C38.3504 18.048 37.3504 17.704 36.5664 17.016C35.7984 16.312 35.4144 15.336 35.4144 14.088V9.912ZM54.812 0.431999H55.1C55.388 0.431999 55.532 0.583999 55.532 0.887999V14.088C55.532 15.336 55.148 16.312 54.38 17.016C53.628 17.704 52.636 18.048 51.404 18.048C50.172 18.048 49.172 17.704 48.404 17.016C47.636 16.328 47.252 15.352 47.252 14.088V9.912C47.252 8.68 47.636 7.72 48.404 7.032C49.172 6.344 50.172 6 51.404 6C51.916 6 52.46 6.096 53.036 6.288C53.628 6.48 54.076 6.696 54.38 6.936V0.887999C54.38 0.583999 54.524 0.431999 54.812 0.431999ZM54.38 8.256C53.452 7.52 52.508 7.152 51.548 7.152C50.588 7.152 49.82 7.392 49.244 7.872C48.684 8.352 48.404 9.048 48.404 9.96V14.064C48.404 14.992 48.684 15.696 49.244 16.176C49.82 16.656 50.54 16.896 51.404 16.896C52.268 16.896 52.98 16.656 53.54 16.176C54.1 15.68 54.38 14.976 54.38 14.064V8.256ZM59.9184 5.976H60.3264C60.5184 5.976 60.6464 6.016 60.7104 6.096C60.7744 6.176 60.8064 6.296 60.8064 6.456V17.52C60.8064 17.664 60.7584 17.784 60.6624 17.88C60.5664 17.96 60.4544 18 60.3264 18H59.9184C59.7904 18 59.6784 17.96 59.5824 17.88C59.4864 17.784 59.4384 17.664 59.4384 17.52V6.456C59.4384 6.248 59.4784 6.12 59.5584 6.072C59.6544 6.008 59.7744 5.976 59.9184 5.976ZM58.9824 0.647999C59.1424 0.503999 59.5104 0.431999 60.0864 0.431999C60.6624 0.431999 61.0384 0.511999 61.2144 0.671999C61.3904 0.815999 61.4784 1.128 61.4784 1.608V1.92C61.4784 2.464 61.3904 2.808 61.2144 2.952C61.0384 3.096 60.6624 3.168 60.0864 3.168C59.5104 3.168 59.1424 3.096 58.9824 2.952C58.8224 2.808 58.7424 2.464 58.7424 1.92V1.608C58.7424 1.096 58.8224 0.775999 58.9824 0.647999ZM60.6384 1.68C60.6384 1.52 60.5984 1.416 60.5184 1.368C60.4544 1.304 60.3104 1.272 60.0864 1.272C59.8784 1.272 59.7424 1.296 59.6784 1.344C59.6144 1.392 59.5824 1.504 59.5824 1.68V1.92C59.5824 2.096 59.6144 2.208 59.6784 2.256C59.7424 2.304 59.8864 2.328 60.1104 2.328C60.3344 2.328 60.4784 2.304 60.5424 2.256C60.6064 2.208 60.6384 2.096 60.6384 1.92V1.68ZM68.5848 5.952C69.7848 5.952 70.7048 6.272 71.3448 6.912C71.9848 7.536 72.3048 8.456 72.3048 9.672V17.52C72.3048 17.84 72.1528 18 71.8488 18H71.6568C71.3368 18 71.1768 17.84 71.1768 17.52V9.936C71.1768 8.032 70.3048 7.08 68.5608 7.08C67.6488 7.08 66.8728 7.44 66.2328 8.16C66.0568 8.304 65.9048 8.376 65.7768 8.376C65.4888 8.376 65.3368 8.216 65.3208 7.896C65.3208 7.768 65.3528 7.64 65.4168 7.512C65.7528 7.048 66.2008 6.672 66.7608 6.384C67.3208 6.096 67.9288 5.952 68.5848 5.952ZM64.5288 6.024H64.7208C64.8488 6.024 64.9608 6.072 65.0568 6.168C65.1528 6.248 65.2008 6.36 65.2008 6.504V17.52C65.2008 17.664 65.1528 17.784 65.0568 17.88C64.9608 17.96 64.8488 18 64.7208 18H64.5288C64.4008 18 64.2888 17.96 64.1928 17.88C64.0968 17.784 64.0488 17.664 64.0488 17.52V6.504C64.0488 6.36 64.0968 6.248 64.1928 6.168C64.2888 6.072 64.4008 6.024 64.5288 6.024Z" fill="white"/>
</svg>
