<svg width="141" height="24" viewBox="0 0 141 24" fill="none" xmlns="http://www.w3.org/2000/svg">
<path d="M7.816 1.224C8.088 1.224 8.224 1.36 8.224 1.632C8.224 1.696 8.208 1.768 8.176 1.848L1.912 17.688C1.784 17.896 1.664 18 1.552 18H1.264C1.088 18 0.96 17.952 0.88 17.856C0.8 17.744 0.76 17.656 0.76 17.592C0.76 17.512 0.776 17.44 0.808 17.376L7.048 1.536C7.16 1.328 7.312 1.224 7.504 1.224H7.816ZM21.1776 1.128C21.4336 1.128 21.6576 1.216 21.8496 1.392C22.0416 1.552 22.1376 1.808 22.1376 2.16V17.52C22.1376 17.648 22.0896 17.76 21.9936 17.856C21.9136 17.952 21.8016 18 21.6576 18H21.4416C21.2976 18 21.1776 17.952 21.0816 17.856C21.0016 17.76 20.9616 17.648 20.9616 17.52V3.24L16.7856 13.56C16.6096 13.976 16.3216 14.208 15.9216 14.256C15.4576 14.256 15.1296 14.032 14.9376 13.584L10.5216 3.144V17.52C10.5216 17.648 10.4736 17.76 10.3776 17.856C10.2816 17.952 10.1696 18 10.0416 18H9.80163C9.67363 18 9.56163 17.952 9.46563 17.856C9.38563 17.76 9.34563 17.648 9.34563 17.52V2.16C9.34563 1.472 9.65763 1.128 10.2816 1.128C10.7136 1.128 11.0336 1.368 11.2416 1.848L15.8496 12.72L20.2176 1.848C20.4416 1.368 20.7616 1.128 21.1776 1.128ZM35.011 1.2H35.275C35.419 1.2 35.539 1.248 35.635 1.344C35.779 1.504 35.795 1.688 35.683 1.896L31.483 9.432L35.995 17.304C36.043 17.4 36.067 17.488 36.067 17.568C36.067 17.856 35.907 18 35.587 18H35.323C35.147 18 35.027 17.952 34.963 17.856L30.835 10.632L27.187 17.352C26.899 17.832 26.579 18.072 26.227 18.072C25.619 18.072 25.315 17.752 25.315 17.112V1.68C25.315 1.552 25.355 1.44 25.435 1.344C25.531 1.248 25.651 1.2 25.795 1.2H26.035C26.179 1.2 26.291 1.248 26.371 1.344C26.467 1.44 26.515 1.552 26.515 1.68V16.08L31.267 7.392L34.675 1.344C34.739 1.248 34.851 1.2 35.011 1.2ZM45.8901 0.431999H46.1781C46.4661 0.431999 46.6101 0.583999 46.6101 0.887999V14.088C46.6101 15.336 46.2261 16.312 45.4581 17.016C44.7061 17.704 43.7141 18.048 42.4821 18.048C41.2501 18.048 40.2501 17.704 39.4821 17.016C38.7141 16.328 38.3301 15.352 38.3301 14.088V9.912C38.3301 8.68 38.7141 7.72 39.4821 7.032C40.2501 6.344 41.2501 6 42.4821 6C42.9941 6 43.5381 6.096 44.1141 6.288C44.7061 6.48 45.1541 6.696 45.4581 6.936V0.887999C45.4581 0.583999 45.6021 0.431999 45.8901 0.431999ZM45.4581 8.256C44.5301 7.52 43.5861 7.152 42.6261 7.152C41.6661 7.152 40.8981 7.392 40.3221 7.872C39.7621 8.352 39.4821 9.048 39.4821 9.96V14.064C39.4821 14.992 39.7621 15.696 40.3221 16.176C40.8981 16.656 41.6181 16.896 42.4821 16.896C43.3461 16.896 44.0581 16.656 44.6181 16.176C45.1781 15.68 45.4581 14.976 45.4581 14.064V8.256ZM50.4925 9.912C50.4925 8.648 50.8765 7.672 51.6445 6.984C52.4125 6.296 53.4125 5.952 54.6445 5.952C55.8765 5.952 56.8685 6.304 57.6205 7.008C58.3725 7.696 58.7485 8.664 58.7485 9.912V14.088C58.7485 15.336 58.3725 16.312 57.6205 17.016C56.8685 17.704 55.8765 18.048 54.6445 18.048C53.4285 18.048 52.4285 17.704 51.6445 17.016C50.8765 16.312 50.4925 15.336 50.4925 14.088V9.912ZM57.6205 9.912C57.6205 9 57.3405 8.304 56.7805 7.824C56.2205 7.328 55.5085 7.08 54.6445 7.08C53.7805 7.08 53.0605 7.328 52.4845 7.824C51.9085 8.304 51.6205 9 51.6205 9.912V14.088C51.6205 15 51.9085 15.704 52.4845 16.2C53.0605 16.68 53.7805 16.92 54.6445 16.92C55.5085 16.92 56.2205 16.68 56.7805 16.2C57.3405 15.704 57.6205 15 57.6205 14.088V9.912ZM63.0663 5.952H63.2583C63.5783 5.952 63.7383 6.112 63.7383 6.432V14.016C63.7383 14.96 63.9703 15.672 64.4342 16.152C64.9143 16.632 65.5863 16.872 66.4503 16.872C67.3143 16.872 68.0583 16.528 68.6823 15.84C68.8263 15.664 68.9783 15.576 69.1383 15.576C69.4423 15.576 69.5943 15.752 69.5943 16.104C69.5943 16.248 69.5543 16.376 69.4743 16.488C69.1543 16.936 68.7063 17.304 68.1303 17.592C67.5543 17.864 66.9463 18 66.3063 18C65.2023 18 64.3063 17.656 63.6183 16.968C62.9463 16.264 62.6103 15.288 62.6103 14.04V6.432C62.6103 6.112 62.7623 5.952 63.0663 5.952ZM70.1703 6H70.4103C70.7143 6 70.8663 6.16 70.8663 6.48V15.192C70.8663 15.816 70.9143 16.248 71.0103 16.488C71.1223 16.712 71.3303 16.864 71.6343 16.944L71.8983 17.016C72.1383 17.064 72.2583 17.168 72.2583 17.328V17.592C72.2583 17.864 72.0983 18 71.7783 18C70.9943 18 70.4503 17.768 70.1463 17.304C69.8583 16.84 69.7143 16.128 69.7143 15.168V6.48C69.7143 6.16 69.8663 6 70.1703 6ZM74.5394 9.936C74.5394 8.672 74.9234 7.696 75.6914 7.008C76.4594 6.32 77.4594 5.976 78.6914 5.976C79.9394 5.976 80.9314 6.32 81.6674 7.008C82.4194 7.696 82.7954 8.672 82.7954 9.936V19.824C82.7954 21.184 82.4354 22.216 81.7154 22.92C80.9954 23.64 80.0274 24 78.8114 24C77.6114 24 76.6434 23.664 75.9074 22.992C75.1714 22.32 74.7954 21.376 74.7794 20.16C74.7794 19.872 74.9314 19.728 75.2354 19.728H75.4274C75.7474 19.728 75.9074 19.872 75.9074 20.16C75.9394 21.04 76.2194 21.712 76.7474 22.176C77.2914 22.64 77.9874 22.872 78.8354 22.872C79.6834 22.872 80.3634 22.616 80.8754 22.104C81.4034 21.592 81.6674 20.824 81.6674 19.8V17.136C80.8034 17.76 79.7794 18.072 78.5954 18.072C77.4274 18.072 76.4594 17.728 75.6914 17.04C74.9234 16.352 74.5394 15.376 74.5394 14.112V9.936ZM81.6674 9.936C81.6674 9.024 81.3874 8.328 80.8274 7.848C80.2674 7.352 79.5474 7.104 78.6674 7.104C77.8034 7.104 77.0914 7.352 76.5314 7.848C75.9714 8.328 75.6914 9.032 75.6914 9.96V14.088C75.6914 15 75.9794 15.704 76.5554 16.2C77.1474 16.68 77.8434 16.92 78.6434 16.92C79.4594 16.92 80.1234 16.792 80.6354 16.536C81.1634 16.264 81.5074 15.968 81.6674 15.648V9.936ZM87.4413 0.48H87.6333C87.9373 0.48 88.0893 0.631999 88.0893 0.935999V14.304C88.0893 16.016 88.8173 16.872 90.2733 16.872H90.6573C90.7853 16.872 90.8893 16.92 90.9693 17.016C91.0653 17.112 91.1133 17.216 91.1133 17.328V17.52C91.1133 17.84 90.8253 18 90.2493 18C89.1613 18 88.3373 17.688 87.7773 17.064C87.2173 16.44 86.9453 15.528 86.9613 14.328V0.935999C86.9613 0.631999 87.1213 0.48 87.4413 0.48ZM94.0879 9.912C94.0879 8.648 94.4719 7.672 95.2399 6.984C96.0079 6.296 97.0079 5.952 98.2399 5.952C99.4719 5.952 100.464 6.304 101.216 7.008C101.968 7.696 102.344 8.664 102.344 9.912V15.192C102.344 15.816 102.392 16.248 102.488 16.488C102.6 16.712 102.808 16.864 103.112 16.944L103.376 17.016C103.616 17.064 103.736 17.168 103.736 17.328V17.592C103.736 17.864 103.576 18 103.256 18C102.472 18 101.936 17.768 101.648 17.304C101.36 16.84 101.216 16.128 101.216 15.168V9.912C101.216 9 100.936 8.304 100.376 7.824C99.8159 7.328 99.1039 7.08 98.2399 7.08C97.3759 7.08 96.6559 7.328 96.0799 7.824C95.5039 8.304 95.2159 9 95.2159 9.912V14.016C95.2159 14.96 95.4479 15.672 95.9119 16.152C96.3919 16.632 97.0719 16.872 97.9519 16.872C98.8479 16.872 99.5839 16.512 100.16 15.792C100.272 15.648 100.424 15.576 100.616 15.576C100.824 15.576 100.968 15.696 101.048 15.936C101.096 16.128 101.072 16.296 100.976 16.44C100.288 17.48 99.2959 18 97.9999 18C96.7199 18 95.7439 17.656 95.0719 16.968C94.4159 16.28 94.0879 15.304 94.0879 14.04V9.912ZM106.23 9.144C106.23 8.232 106.534 7.472 107.142 6.864C107.766 6.256 108.686 5.952 109.902 5.952C111.134 5.952 112.078 6.256 112.734 6.864C113.39 7.456 113.718 8.336 113.718 9.504C113.718 9.632 113.67 9.744 113.574 9.84C113.494 9.92 113.39 9.96 113.262 9.96H113.046C112.918 9.96 112.806 9.92 112.71 9.84C112.63 9.744 112.59 9.64 112.59 9.528C112.59 7.912 111.686 7.104 109.878 7.104C109.046 7.104 108.414 7.304 107.982 7.704C107.566 8.104 107.358 8.608 107.358 9.216C107.358 9.824 107.558 10.312 107.958 10.68C108.374 11.032 109.15 11.32 110.286 11.544C111.422 11.768 112.31 12.12 112.95 12.6C113.59 13.08 113.91 13.8 113.91 14.76C113.91 15.704 113.558 16.496 112.854 17.136C112.166 17.76 111.198 18.072 109.95 18.072C108.718 18.072 107.718 17.76 106.95 17.136C106.182 16.496 105.798 15.56 105.798 14.328C105.798 13.992 105.958 13.824 106.278 13.824H106.47C106.774 13.824 106.926 13.984 106.926 14.304C106.926 16.048 107.958 16.92 110.022 16.92C110.95 16.92 111.638 16.712 112.086 16.296C112.55 15.864 112.782 15.336 112.782 14.712C112.782 14.088 112.542 13.64 112.062 13.368C111.582 13.08 110.742 12.808 109.542 12.552C108.358 12.296 107.51 11.888 106.998 11.328C106.486 10.768 106.23 10.04 106.23 9.144ZM117.392 5.016C117.392 3.976 117.816 3.072 118.664 2.304C119.512 1.536 120.664 1.152 122.12 1.152C123.592 1.152 124.824 1.544 125.816 2.328C126.824 3.096 127.36 4.248 127.424 5.784C127.424 5.912 127.376 6.032 127.28 6.144C127.184 6.24 127.072 6.288 126.944 6.288H126.704C126.592 6.288 126.488 6.248 126.392 6.168C126.296 6.072 126.24 5.96 126.224 5.832C126.176 4.616 125.768 3.736 125 3.192C124.232 2.632 123.312 2.352 122.24 2.352C121.088 2.352 120.192 2.616 119.552 3.144C118.912 3.672 118.592 4.328 118.592 5.112C118.592 5.88 118.816 6.496 119.264 6.96C119.888 7.584 121.048 8.224 122.744 8.88C124.76 9.68 126.104 10.48 126.776 11.28C127.288 11.888 127.544 12.76 127.544 13.896C127.544 15.032 127.08 16.008 126.152 16.824C125.24 17.624 123.936 18.024 122.24 18.024C120.976 18.024 119.784 17.68 118.664 16.992C118.072 16.624 117.584 16.112 117.2 15.456C116.832 14.784 116.632 14.016 116.6 13.152C116.6 12.816 116.76 12.648 117.08 12.648H117.296C117.584 12.648 117.744 12.8 117.776 13.104C117.808 13.808 117.984 14.424 118.304 14.952C118.624 15.464 119.024 15.848 119.504 16.104C120.432 16.6 121.448 16.848 122.552 16.848C123.672 16.848 124.584 16.56 125.288 15.984C126.008 15.392 126.368 14.656 126.368 13.776C126.368 12.88 126.08 12.192 125.504 11.712C125.04 11.328 124.536 11 123.992 10.728C123.288 10.392 122.184 9.92 120.68 9.312C119.528 8.8 118.688 8.216 118.16 7.56C117.648 6.888 117.392 6.04 117.392 5.016ZM139.847 1.2H140.111C140.255 1.2 140.375 1.248 140.471 1.344C140.615 1.504 140.631 1.688 140.519 1.896L136.319 9.432L140.831 17.304C140.879 17.4 140.903 17.488 140.903 17.568C140.903 17.856 140.743 18 140.423 18H140.159C139.983 18 139.863 17.952 139.799 17.856L135.671 10.632L132.023 17.352C131.735 17.832 131.415 18.072 131.063 18.072C130.455 18.072 130.151 17.752 130.151 17.112V1.68C130.151 1.552 130.191 1.44 130.271 1.344C130.367 1.248 130.487 1.2 130.631 1.2H130.871C131.015 1.2 131.127 1.248 131.207 1.344C131.303 1.44 131.351 1.552 131.351 1.68V16.08L136.103 7.392L139.511 1.344C139.575 1.248 139.687 1.2 139.847 1.2Z" fill="white"/>
</svg>
